<mxfile host="app.diagrams.net" agent="Mozilla/5.0 (Windows NT 6.1; Win64; x64; rv:109.0) Gecko/20100101 Firefox/115.0" version="24.8.4">
  <diagram name="PÃ¡gina-1" id="0LTI3dH6KVHP8nNDPYD0">
    <mxGraphModel dx="1173" dy="627" grid="1" gridSize="10" guides="1" tooltips="1" connect="1" arrows="1" fold="1" page="1" pageScale="1" pageWidth="827" pageHeight="1169" math="0" shadow="0">
      <root>
        <mxCell id="0" />
        <mxCell id="1" parent="0" />
        <mxCell id="34r-FkiYNikVOV2Mms_5-7" value="" style="group" vertex="1" connectable="0" parent="1">
          <mxGeometry x="20" y="120" width="210" height="60" as="geometry" />
        </mxCell>
        <mxCell id="34r-FkiYNikVOV2Mms_5-1" value="Registrador de Estado" style="rounded=1;whiteSpace=wrap;html=1;" vertex="1" parent="34r-FkiYNikVOV2Mms_5-7">
          <mxGeometry width="210" height="60" as="geometry" />
        </mxCell>
        <mxCell id="34r-FkiYNikVOV2Mms_5-2" value="" style="triangle;whiteSpace=wrap;html=1;movable=1;resizable=1;rotatable=1;deletable=1;editable=1;locked=0;connectable=1;" vertex="1" parent="34r-FkiYNikVOV2Mms_5-7">
          <mxGeometry y="10" width="30" height="40" as="geometry" />
        </mxCell>
        <mxCell id="34r-FkiYNikVOV2Mms_5-26" value="&lt;div&gt;Comparador&amp;nbsp;&lt;/div&gt;&lt;div&gt;terceiro valor&lt;br&gt;&lt;/div&gt;" style="rounded=1;whiteSpace=wrap;html=1;" vertex="1" parent="1">
          <mxGeometry x="680" y="240" width="90" height="40" as="geometry" />
        </mxCell>
        <mxCell id="34r-FkiYNikVOV2Mms_5-27" value="" style="endArrow=classic;html=1;rounded=0;exitX=0.967;exitY=1;exitDx=0;exitDy=0;exitPerimeter=0;" edge="1" parent="1" source="34r-FkiYNikVOV2Mms_5-3">
          <mxGeometry width="50" height="50" relative="1" as="geometry">
            <mxPoint x="420" y="270" as="sourcePoint" />
            <mxPoint x="700" y="240" as="targetPoint" />
          </mxGeometry>
        </mxCell>
        <mxCell id="34r-FkiYNikVOV2Mms_5-28" value="" style="endArrow=classic;html=1;rounded=0;exitX=0.967;exitY=1;exitDx=0;exitDy=0;exitPerimeter=0;" edge="1" parent="1">
          <mxGeometry width="50" height="50" relative="1" as="geometry">
            <mxPoint x="508.82" y="150" as="sourcePoint" />
            <mxPoint x="508.82" y="240" as="targetPoint" />
          </mxGeometry>
        </mxCell>
        <mxCell id="34r-FkiYNikVOV2Mms_5-29" value="" style="endArrow=classic;html=1;rounded=0;exitX=0.967;exitY=1;exitDx=0;exitDy=0;exitPerimeter=0;" edge="1" parent="1">
          <mxGeometry width="50" height="50" relative="1" as="geometry">
            <mxPoint x="600" y="150" as="sourcePoint" />
            <mxPoint x="600" y="240" as="targetPoint" />
          </mxGeometry>
        </mxCell>
        <mxCell id="34r-FkiYNikVOV2Mms_5-31" value="" style="endArrow=classic;html=1;rounded=0;entryX=0.75;entryY=0;entryDx=0;entryDy=0;" edge="1" parent="1" target="34r-FkiYNikVOV2Mms_5-26">
          <mxGeometry width="50" height="50" relative="1" as="geometry">
            <mxPoint x="748" y="210" as="sourcePoint" />
            <mxPoint x="470" y="220" as="targetPoint" />
          </mxGeometry>
        </mxCell>
        <mxCell id="34r-FkiYNikVOV2Mms_5-32" value="Valor 3 da senha correta" style="text;html=1;align=center;verticalAlign=middle;whiteSpace=wrap;rounded=0;" vertex="1" parent="1">
          <mxGeometry x="710" y="180" width="80" height="30" as="geometry" />
        </mxCell>
        <mxCell id="34r-FkiYNikVOV2Mms_5-33" value="Valor 2 da senha correta" style="text;html=1;align=center;verticalAlign=middle;whiteSpace=wrap;rounded=0;" vertex="1" parent="1">
          <mxGeometry x="610" y="180" width="80" height="30" as="geometry" />
        </mxCell>
        <mxCell id="34r-FkiYNikVOV2Mms_5-34" value="&lt;div&gt;Comparador&amp;nbsp;&lt;/div&gt;&lt;div&gt;segundo valor&lt;br&gt;&lt;/div&gt;" style="rounded=1;whiteSpace=wrap;html=1;" vertex="1" parent="1">
          <mxGeometry x="580" y="240" width="90" height="40" as="geometry" />
        </mxCell>
        <mxCell id="34r-FkiYNikVOV2Mms_5-35" value="" style="endArrow=classic;html=1;rounded=0;entryX=0.75;entryY=0;entryDx=0;entryDy=0;" edge="1" target="34r-FkiYNikVOV2Mms_5-34" parent="1">
          <mxGeometry width="50" height="50" relative="1" as="geometry">
            <mxPoint x="648" y="210" as="sourcePoint" />
            <mxPoint x="370" y="220" as="targetPoint" />
          </mxGeometry>
        </mxCell>
        <mxCell id="34r-FkiYNikVOV2Mms_5-36" value="Valor 1 da senha correta" style="text;html=1;align=center;verticalAlign=middle;whiteSpace=wrap;rounded=0;" vertex="1" parent="1">
          <mxGeometry x="510" y="180" width="80" height="30" as="geometry" />
        </mxCell>
        <mxCell id="34r-FkiYNikVOV2Mms_5-37" value="&lt;div&gt;Comparador&amp;nbsp;&lt;/div&gt;&lt;div&gt;primeiro valor&lt;br&gt;&lt;/div&gt;" style="rounded=1;whiteSpace=wrap;html=1;" vertex="1" parent="1">
          <mxGeometry x="480" y="240" width="90" height="40" as="geometry" />
        </mxCell>
        <mxCell id="34r-FkiYNikVOV2Mms_5-38" value="" style="endArrow=classic;html=1;rounded=0;entryX=0.75;entryY=0;entryDx=0;entryDy=0;" edge="1" target="34r-FkiYNikVOV2Mms_5-37" parent="1">
          <mxGeometry width="50" height="50" relative="1" as="geometry">
            <mxPoint x="548" y="210" as="sourcePoint" />
            <mxPoint x="270" y="220" as="targetPoint" />
          </mxGeometry>
        </mxCell>
        <mxCell id="34r-FkiYNikVOV2Mms_5-39" value="" style="shape=or;whiteSpace=wrap;html=1;rotation=90;" vertex="1" parent="1">
          <mxGeometry x="601.25" y="310" width="47.5" height="60" as="geometry" />
        </mxCell>
        <mxCell id="34r-FkiYNikVOV2Mms_5-43" value="" style="endArrow=classic;html=1;rounded=0;entryX=0;entryY=0.75;entryDx=0;entryDy=0;entryPerimeter=0;" edge="1" parent="1">
          <mxGeometry width="50" height="50" relative="1" as="geometry">
            <mxPoint x="525" y="280" as="sourcePoint" />
            <mxPoint x="610" y="318.13" as="targetPoint" />
            <Array as="points">
              <mxPoint x="525" y="301.88" />
              <mxPoint x="610" y="301.88" />
            </Array>
          </mxGeometry>
        </mxCell>
        <mxCell id="34r-FkiYNikVOV2Mms_5-44" value="" style="endArrow=classic;html=1;rounded=0;entryX=0;entryY=0.25;entryDx=0;entryDy=0;entryPerimeter=0;" edge="1" parent="1">
          <mxGeometry width="50" height="50" relative="1" as="geometry">
            <mxPoint x="725" y="280" as="sourcePoint" />
            <mxPoint x="640" y="316.25" as="targetPoint" />
            <Array as="points">
              <mxPoint x="725" y="300" />
              <mxPoint x="640" y="300" />
            </Array>
          </mxGeometry>
        </mxCell>
        <mxCell id="34r-FkiYNikVOV2Mms_5-46" value="" style="endArrow=classic;html=1;rounded=0;exitX=0.5;exitY=1;exitDx=0;exitDy=0;entryX=0;entryY=0.5;entryDx=0;entryDy=0;entryPerimeter=0;" edge="1" parent="1" source="34r-FkiYNikVOV2Mms_5-34" target="34r-FkiYNikVOV2Mms_5-39">
          <mxGeometry width="50" height="50" relative="1" as="geometry">
            <mxPoint x="420" y="310" as="sourcePoint" />
            <mxPoint x="470" y="260" as="targetPoint" />
          </mxGeometry>
        </mxCell>
        <mxCell id="34r-FkiYNikVOV2Mms_5-48" value="" style="endArrow=classic;html=1;rounded=0;exitX=1;exitY=0.5;exitDx=0;exitDy=0;exitPerimeter=0;" edge="1" parent="1" source="34r-FkiYNikVOV2Mms_5-39">
          <mxGeometry width="50" height="50" relative="1" as="geometry">
            <mxPoint x="420" y="310" as="sourcePoint" />
            <mxPoint x="625" y="400" as="targetPoint" />
          </mxGeometry>
        </mxCell>
        <mxCell id="34r-FkiYNikVOV2Mms_5-49" value="Senhacorreta" style="text;html=1;align=center;verticalAlign=middle;whiteSpace=wrap;rounded=0;" vertex="1" parent="1">
          <mxGeometry x="575" y="400" width="100" height="30" as="geometry" />
        </mxCell>
        <mxCell id="34r-FkiYNikVOV2Mms_5-67" value="" style="group" vertex="1" connectable="0" parent="1">
          <mxGeometry x="70" y="340" width="120" height="230" as="geometry" />
        </mxCell>
        <mxCell id="34r-FkiYNikVOV2Mms_5-54" value="" style="group" vertex="1" connectable="0" parent="34r-FkiYNikVOV2Mms_5-67">
          <mxGeometry y="100" width="120" height="60" as="geometry" />
        </mxCell>
        <mxCell id="34r-FkiYNikVOV2Mms_5-52" value="&lt;div&gt;Temporizador&lt;br&gt;&lt;/div&gt;&lt;div&gt;5 segundos&lt;br&gt;&lt;/div&gt;" style="rounded=1;whiteSpace=wrap;html=1;" vertex="1" parent="34r-FkiYNikVOV2Mms_5-54">
          <mxGeometry width="119.99999999999999" height="60" as="geometry" />
        </mxCell>
        <mxCell id="34r-FkiYNikVOV2Mms_5-53" value="" style="triangle;whiteSpace=wrap;html=1;" vertex="1" parent="34r-FkiYNikVOV2Mms_5-54">
          <mxGeometry y="15" width="24.545454545454543" height="30" as="geometry" />
        </mxCell>
        <mxCell id="34r-FkiYNikVOV2Mms_5-59" value="" style="endArrow=classic;html=1;rounded=0;entryX=0.25;entryY=0;entryDx=0;entryDy=0;" edge="1" parent="34r-FkiYNikVOV2Mms_5-67" target="34r-FkiYNikVOV2Mms_5-52">
          <mxGeometry width="50" height="50" relative="1" as="geometry">
            <mxPoint x="30" y="50" as="sourcePoint" />
            <mxPoint x="280" y="180" as="targetPoint" />
          </mxGeometry>
        </mxCell>
        <mxCell id="34r-FkiYNikVOV2Mms_5-61" value="" style="ellipse;whiteSpace=wrap;html=1;aspect=fixed;" vertex="1" parent="34r-FkiYNikVOV2Mms_5-67">
          <mxGeometry x="80" y="80" width="20" height="20" as="geometry" />
        </mxCell>
        <mxCell id="34r-FkiYNikVOV2Mms_5-62" value="" style="endArrow=classic;html=1;rounded=0;entryX=0.25;entryY=0;entryDx=0;entryDy=0;" edge="1" parent="34r-FkiYNikVOV2Mms_5-67">
          <mxGeometry width="50" height="50" relative="1" as="geometry">
            <mxPoint x="89.41000000000003" y="30" as="sourcePoint" />
            <mxPoint x="89.41000000000003" y="80" as="targetPoint" />
          </mxGeometry>
        </mxCell>
        <mxCell id="34r-FkiYNikVOV2Mms_5-63" value="" style="endArrow=classic;html=1;rounded=0;exitX=0.5;exitY=1;exitDx=0;exitDy=0;" edge="1" parent="34r-FkiYNikVOV2Mms_5-67" source="34r-FkiYNikVOV2Mms_5-52">
          <mxGeometry width="50" height="50" relative="1" as="geometry">
            <mxPoint x="230" y="230" as="sourcePoint" />
            <mxPoint x="60" y="200" as="targetPoint" />
          </mxGeometry>
        </mxCell>
        <mxCell id="34r-FkiYNikVOV2Mms_5-64" value="5segundos" style="text;html=1;align=center;verticalAlign=middle;whiteSpace=wrap;rounded=0;" vertex="1" parent="34r-FkiYNikVOV2Mms_5-67">
          <mxGeometry x="32.5" y="200" width="60" height="30" as="geometry" />
        </mxCell>
        <mxCell id="34r-FkiYNikVOV2Mms_5-65" value="Enable" style="text;html=1;align=center;verticalAlign=middle;whiteSpace=wrap;rounded=0;" vertex="1" parent="34r-FkiYNikVOV2Mms_5-67">
          <mxGeometry y="20" width="60" height="30" as="geometry" />
        </mxCell>
        <mxCell id="34r-FkiYNikVOV2Mms_5-66" value="Clear" style="text;html=1;align=center;verticalAlign=middle;whiteSpace=wrap;rounded=0;" vertex="1" parent="34r-FkiYNikVOV2Mms_5-67">
          <mxGeometry x="60" width="60" height="30" as="geometry" />
        </mxCell>
        <mxCell id="34r-FkiYNikVOV2Mms_5-69" value="" style="group" vertex="1" connectable="0" parent="1">
          <mxGeometry x="280" y="445" width="130" height="60" as="geometry" />
        </mxCell>
        <mxCell id="34r-FkiYNikVOV2Mms_5-70" value="&lt;div&gt;Temporizador&lt;br&gt;&lt;/div&gt;&lt;div&gt;20 segundos&lt;br&gt;&lt;/div&gt;" style="rounded=1;whiteSpace=wrap;html=1;" vertex="1" parent="34r-FkiYNikVOV2Mms_5-69">
          <mxGeometry x="-10" width="140" height="60" as="geometry" />
        </mxCell>
        <mxCell id="34r-FkiYNikVOV2Mms_5-72" value="" style="endArrow=classic;html=1;rounded=0;entryX=0.25;entryY=0;entryDx=0;entryDy=0;" edge="1" parent="1" target="34r-FkiYNikVOV2Mms_5-70">
          <mxGeometry width="50" height="50" relative="1" as="geometry">
            <mxPoint x="305" y="405" as="sourcePoint" />
            <mxPoint x="560" y="525" as="targetPoint" />
          </mxGeometry>
        </mxCell>
        <mxCell id="34r-FkiYNikVOV2Mms_5-73" value="" style="ellipse;whiteSpace=wrap;html=1;aspect=fixed;" vertex="1" parent="1">
          <mxGeometry x="360" y="425" width="20" height="20" as="geometry" />
        </mxCell>
        <mxCell id="34r-FkiYNikVOV2Mms_5-74" value="" style="endArrow=classic;html=1;rounded=0;entryX=0.25;entryY=0;entryDx=0;entryDy=0;" edge="1" parent="1">
          <mxGeometry width="50" height="50" relative="1" as="geometry">
            <mxPoint x="369.4100000000001" y="375" as="sourcePoint" />
            <mxPoint x="369.4100000000001" y="425" as="targetPoint" />
          </mxGeometry>
        </mxCell>
        <mxCell id="34r-FkiYNikVOV2Mms_5-75" value="" style="endArrow=classic;html=1;rounded=0;exitX=0.5;exitY=1;exitDx=0;exitDy=0;" edge="1" parent="1" source="34r-FkiYNikVOV2Mms_5-70">
          <mxGeometry width="50" height="50" relative="1" as="geometry">
            <mxPoint x="510" y="575" as="sourcePoint" />
            <mxPoint x="340" y="545" as="targetPoint" />
          </mxGeometry>
        </mxCell>
        <mxCell id="34r-FkiYNikVOV2Mms_5-76" value="20segundos" style="text;html=1;align=center;verticalAlign=middle;whiteSpace=wrap;rounded=0;" vertex="1" parent="1">
          <mxGeometry x="312.5" y="545" width="60" height="30" as="geometry" />
        </mxCell>
        <mxCell id="34r-FkiYNikVOV2Mms_5-77" value="Enable" style="text;html=1;align=center;verticalAlign=middle;whiteSpace=wrap;rounded=0;" vertex="1" parent="1">
          <mxGeometry x="270" y="375" width="60" height="30" as="geometry" />
        </mxCell>
        <mxCell id="34r-FkiYNikVOV2Mms_5-78" value="Clear" style="text;html=1;align=center;verticalAlign=middle;whiteSpace=wrap;rounded=0;" vertex="1" parent="1">
          <mxGeometry x="340" y="345" width="60" height="30" as="geometry" />
        </mxCell>
        <mxCell id="34r-FkiYNikVOV2Mms_5-71" value="" style="triangle;whiteSpace=wrap;html=1;" vertex="1" parent="1">
          <mxGeometry x="270" y="460" width="26.590909090909086" height="30" as="geometry" />
        </mxCell>
        <mxCell id="34r-FkiYNikVOV2Mms_5-91" value="" style="endArrow=classic;html=1;rounded=0;" edge="1" parent="1">
          <mxGeometry width="50" height="50" relative="1" as="geometry">
            <mxPoint x="30" y="70" as="sourcePoint" />
            <mxPoint x="30" y="120" as="targetPoint" />
          </mxGeometry>
        </mxCell>
        <mxCell id="34r-FkiYNikVOV2Mms_5-93" value="Iniciar" style="text;html=1;align=center;verticalAlign=middle;whiteSpace=wrap;rounded=0;" vertex="1" parent="1">
          <mxGeometry y="40" width="60" height="30" as="geometry" />
        </mxCell>
        <mxCell id="34r-FkiYNikVOV2Mms_5-94" value="Adicionar" style="text;html=1;align=center;verticalAlign=middle;whiteSpace=wrap;rounded=0;" vertex="1" parent="1">
          <mxGeometry x="30" width="60" height="30" as="geometry" />
        </mxCell>
        <mxCell id="34r-FkiYNikVOV2Mms_5-95" value="" style="endArrow=classic;html=1;rounded=0;" edge="1" parent="1">
          <mxGeometry width="50" height="50" relative="1" as="geometry">
            <mxPoint x="60" y="30" as="sourcePoint" />
            <mxPoint x="60" y="120" as="targetPoint" />
          </mxGeometry>
        </mxCell>
        <mxCell id="34r-FkiYNikVOV2Mms_5-96" value="" style="endArrow=classic;html=1;rounded=0;" edge="1" parent="1">
          <mxGeometry width="50" height="50" relative="1" as="geometry">
            <mxPoint x="100" y="70" as="sourcePoint" />
            <mxPoint x="100" y="120" as="targetPoint" />
          </mxGeometry>
        </mxCell>
        <mxCell id="34r-FkiYNikVOV2Mms_5-97" value="" style="endArrow=classic;html=1;rounded=0;" edge="1" parent="1">
          <mxGeometry width="50" height="50" relative="1" as="geometry">
            <mxPoint x="130" y="30" as="sourcePoint" />
            <mxPoint x="130" y="120" as="targetPoint" />
          </mxGeometry>
        </mxCell>
        <mxCell id="34r-FkiYNikVOV2Mms_5-98" value="3valores" style="text;html=1;align=center;verticalAlign=middle;whiteSpace=wrap;rounded=0;" vertex="1" parent="1">
          <mxGeometry x="70" y="40" width="60" height="30" as="geometry" />
        </mxCell>
        <mxCell id="34r-FkiYNikVOV2Mms_5-99" value="Senhacorreta" style="text;html=1;align=center;verticalAlign=middle;whiteSpace=wrap;rounded=0;" vertex="1" parent="1">
          <mxGeometry x="100" width="60" height="30" as="geometry" />
        </mxCell>
        <mxCell id="34r-FkiYNikVOV2Mms_5-88" value="3valores" style="text;html=1;align=center;verticalAlign=middle;whiteSpace=wrap;rounded=0;" vertex="1" parent="1">
          <mxGeometry x="370" y="300" width="60" height="30" as="geometry" />
        </mxCell>
        <mxCell id="34r-FkiYNikVOV2Mms_5-100" value="&lt;div&gt;Comparador&amp;nbsp;&lt;/div&gt;&lt;div&gt;3valores&lt;br&gt;&lt;/div&gt;" style="rounded=1;whiteSpace=wrap;html=1;" vertex="1" parent="1">
          <mxGeometry x="350" y="230" width="90" height="40" as="geometry" />
        </mxCell>
        <mxCell id="34r-FkiYNikVOV2Mms_5-81" value="" style="group" vertex="1" connectable="0" parent="1">
          <mxGeometry x="360" y="100" width="120" height="60" as="geometry" />
        </mxCell>
        <mxCell id="34r-FkiYNikVOV2Mms_5-82" value="&lt;div&gt;Contador&lt;/div&gt;&lt;div&gt;3&amp;nbsp; valores&lt;br&gt;&lt;/div&gt;" style="rounded=1;whiteSpace=wrap;html=1;" vertex="1" parent="34r-FkiYNikVOV2Mms_5-81">
          <mxGeometry width="119.99999999999999" height="60" as="geometry" />
        </mxCell>
        <mxCell id="34r-FkiYNikVOV2Mms_5-83" value="" style="triangle;whiteSpace=wrap;html=1;" vertex="1" parent="34r-FkiYNikVOV2Mms_5-81">
          <mxGeometry y="15" width="24.545454545454543" height="30" as="geometry" />
        </mxCell>
        <mxCell id="34r-FkiYNikVOV2Mms_5-84" value="" style="endArrow=classic;html=1;rounded=0;entryX=0.25;entryY=0;entryDx=0;entryDy=0;" edge="1" parent="1" target="34r-FkiYNikVOV2Mms_5-82">
          <mxGeometry width="50" height="50" relative="1" as="geometry">
            <mxPoint x="390" y="50" as="sourcePoint" />
            <mxPoint x="640" y="180" as="targetPoint" />
          </mxGeometry>
        </mxCell>
        <mxCell id="34r-FkiYNikVOV2Mms_5-85" value="" style="ellipse;whiteSpace=wrap;html=1;aspect=fixed;" vertex="1" parent="1">
          <mxGeometry x="440" y="80" width="20" height="20" as="geometry" />
        </mxCell>
        <mxCell id="34r-FkiYNikVOV2Mms_5-86" value="" style="endArrow=classic;html=1;rounded=0;entryX=0.25;entryY=0;entryDx=0;entryDy=0;" edge="1" parent="1">
          <mxGeometry width="50" height="50" relative="1" as="geometry">
            <mxPoint x="449.41" y="30" as="sourcePoint" />
            <mxPoint x="449.41" y="80" as="targetPoint" />
          </mxGeometry>
        </mxCell>
        <mxCell id="34r-FkiYNikVOV2Mms_5-87" value="" style="endArrow=classic;html=1;rounded=0;exitX=0.5;exitY=1;exitDx=0;exitDy=0;" edge="1" parent="1" source="34r-FkiYNikVOV2Mms_5-82">
          <mxGeometry width="50" height="50" relative="1" as="geometry">
            <mxPoint x="590" y="230" as="sourcePoint" />
            <mxPoint x="420" y="230" as="targetPoint" />
          </mxGeometry>
        </mxCell>
        <mxCell id="34r-FkiYNikVOV2Mms_5-89" value="Enable" style="text;html=1;align=center;verticalAlign=middle;whiteSpace=wrap;rounded=0;" vertex="1" parent="1">
          <mxGeometry x="360" y="20" width="60" height="30" as="geometry" />
        </mxCell>
        <mxCell id="34r-FkiYNikVOV2Mms_5-90" value="Clear" style="text;html=1;align=center;verticalAlign=middle;whiteSpace=wrap;rounded=0;" vertex="1" parent="1">
          <mxGeometry x="420" width="60" height="30" as="geometry" />
        </mxCell>
        <mxCell id="34r-FkiYNikVOV2Mms_5-102" value="" style="endArrow=classic;html=1;rounded=0;exitX=0.5;exitY=1;exitDx=0;exitDy=0;" edge="1" parent="1" source="34r-FkiYNikVOV2Mms_5-100">
          <mxGeometry width="50" height="50" relative="1" as="geometry">
            <mxPoint x="420" y="280" as="sourcePoint" />
            <mxPoint x="395" y="300" as="targetPoint" />
          </mxGeometry>
        </mxCell>
        <mxCell id="34r-FkiYNikVOV2Mms_5-103" value="" style="endArrow=classic;html=1;rounded=0;entryX=0.25;entryY=0;entryDx=0;entryDy=0;" edge="1" parent="1" target="34r-FkiYNikVOV2Mms_5-100">
          <mxGeometry width="50" height="50" relative="1" as="geometry">
            <mxPoint x="373" y="200" as="sourcePoint" />
            <mxPoint x="470" y="230" as="targetPoint" />
          </mxGeometry>
        </mxCell>
        <mxCell id="34r-FkiYNikVOV2Mms_5-104" value="4" style="text;html=1;align=center;verticalAlign=middle;whiteSpace=wrap;rounded=0;" vertex="1" parent="1">
          <mxGeometry x="350" y="170" width="40" height="30" as="geometry" />
        </mxCell>
        <mxCell id="34r-FkiYNikVOV2Mms_5-105" value="" style="endArrow=classic;html=1;rounded=0;" edge="1" parent="1">
          <mxGeometry width="50" height="50" relative="1" as="geometry">
            <mxPoint x="180" y="70" as="sourcePoint" />
            <mxPoint x="180" y="120" as="targetPoint" />
          </mxGeometry>
        </mxCell>
        <mxCell id="34r-FkiYNikVOV2Mms_5-106" value="5segundos" style="text;html=1;align=center;verticalAlign=middle;whiteSpace=wrap;rounded=0;" vertex="1" parent="1">
          <mxGeometry x="150" y="40" width="60" height="30" as="geometry" />
        </mxCell>
        <mxCell id="34r-FkiYNikVOV2Mms_5-107" value="" style="endArrow=classic;html=1;rounded=0;" edge="1" parent="1">
          <mxGeometry width="50" height="50" relative="1" as="geometry">
            <mxPoint x="220" y="30" as="sourcePoint" />
            <mxPoint x="220" y="120" as="targetPoint" />
          </mxGeometry>
        </mxCell>
        <mxCell id="34r-FkiYNikVOV2Mms_5-108" value="20segundos" style="text;html=1;align=center;verticalAlign=middle;whiteSpace=wrap;rounded=0;" vertex="1" parent="1">
          <mxGeometry x="190" width="60" height="30" as="geometry" />
        </mxCell>
        <mxCell id="34r-FkiYNikVOV2Mms_5-22" value="" style="endArrow=classic;html=1;rounded=0;" edge="1" parent="1">
          <mxGeometry width="50" height="50" relative="1" as="geometry">
            <mxPoint x="677" y="30" as="sourcePoint" />
            <mxPoint x="677" y="70" as="targetPoint" />
          </mxGeometry>
        </mxCell>
        <mxCell id="34r-FkiYNikVOV2Mms_5-23" value="Clear" style="text;html=1;align=center;verticalAlign=middle;whiteSpace=wrap;rounded=0;" vertex="1" parent="1">
          <mxGeometry x="647" width="60" height="30" as="geometry" />
        </mxCell>
        <mxCell id="34r-FkiYNikVOV2Mms_5-17" value="" style="endArrow=classic;html=1;rounded=0;" edge="1" parent="1" target="34r-FkiYNikVOV2Mms_5-3">
          <mxGeometry width="50" height="50" relative="1" as="geometry">
            <mxPoint x="602" y="60" as="sourcePoint" />
            <mxPoint x="647" y="-10" as="targetPoint" />
          </mxGeometry>
        </mxCell>
        <mxCell id="34r-FkiYNikVOV2Mms_5-18" value="Valor de entrada" style="text;html=1;align=center;verticalAlign=middle;whiteSpace=wrap;rounded=0;" vertex="1" parent="1">
          <mxGeometry x="547" y="30" width="100" height="30" as="geometry" />
        </mxCell>
        <mxCell id="34r-FkiYNikVOV2Mms_5-21" value="" style="ellipse;whiteSpace=wrap;html=1;aspect=fixed;" vertex="1" parent="1">
          <mxGeometry x="667" y="70" width="20" height="20" as="geometry" />
        </mxCell>
        <mxCell id="34r-FkiYNikVOV2Mms_5-10" value="Enable 1" style="text;html=1;align=center;verticalAlign=middle;whiteSpace=wrap;rounded=0;" vertex="1" parent="1">
          <mxGeometry x="767" y="90" width="60" height="20" as="geometry" />
        </mxCell>
        <mxCell id="34r-FkiYNikVOV2Mms_5-13" value="" style="group" vertex="1" connectable="0" parent="1">
          <mxGeometry x="497" y="90" width="270" height="60" as="geometry" />
        </mxCell>
        <mxCell id="34r-FkiYNikVOV2Mms_5-8" value="" style="group" vertex="1" connectable="0" parent="34r-FkiYNikVOV2Mms_5-13">
          <mxGeometry width="210" height="60" as="geometry" />
        </mxCell>
        <mxCell id="34r-FkiYNikVOV2Mms_5-3" value="&lt;div&gt;Registradores da&amp;nbsp;&lt;/div&gt;&lt;div&gt;senha tentada(3 de 6 bits)&lt;/div&gt;" style="rounded=1;whiteSpace=wrap;html=1;" vertex="1" parent="34r-FkiYNikVOV2Mms_5-8">
          <mxGeometry width="210" height="60" as="geometry" />
        </mxCell>
        <mxCell id="34r-FkiYNikVOV2Mms_5-4" value="" style="triangle;whiteSpace=wrap;html=1;" vertex="1" parent="34r-FkiYNikVOV2Mms_5-8">
          <mxGeometry y="10" width="30" height="40" as="geometry" />
        </mxCell>
        <mxCell id="34r-FkiYNikVOV2Mms_5-9" value="" style="endArrow=classic;html=1;rounded=0;entryX=1;entryY=0.5;entryDx=0;entryDy=0;" edge="1" parent="34r-FkiYNikVOV2Mms_5-13">
          <mxGeometry width="50" height="50" relative="1" as="geometry">
            <mxPoint x="270" y="10" as="sourcePoint" />
            <mxPoint x="210" y="10" as="targetPoint" />
          </mxGeometry>
        </mxCell>
        <mxCell id="34r-FkiYNikVOV2Mms_5-11" value="" style="endArrow=classic;html=1;rounded=0;entryX=1;entryY=0.5;entryDx=0;entryDy=0;" edge="1" parent="34r-FkiYNikVOV2Mms_5-13">
          <mxGeometry width="50" height="50" relative="1" as="geometry">
            <mxPoint x="270" y="50" as="sourcePoint" />
            <mxPoint x="210" y="50" as="targetPoint" />
            <Array as="points">
              <mxPoint x="270" y="50" />
            </Array>
          </mxGeometry>
        </mxCell>
        <mxCell id="34r-FkiYNikVOV2Mms_5-12" value="" style="endArrow=classic;html=1;rounded=0;entryX=1;entryY=0.5;entryDx=0;entryDy=0;" edge="1" parent="34r-FkiYNikVOV2Mms_5-13">
          <mxGeometry width="50" height="50" relative="1" as="geometry">
            <mxPoint x="270" y="30" as="sourcePoint" />
            <mxPoint x="210" y="30" as="targetPoint" />
          </mxGeometry>
        </mxCell>
        <mxCell id="34r-FkiYNikVOV2Mms_5-14" value="Enable 2" style="text;html=1;align=center;verticalAlign=middle;whiteSpace=wrap;rounded=0;" vertex="1" parent="1">
          <mxGeometry x="767" y="110" width="60" height="20" as="geometry" />
        </mxCell>
        <mxCell id="34r-FkiYNikVOV2Mms_5-15" value="Enable 3" style="text;html=1;align=center;verticalAlign=middle;whiteSpace=wrap;rounded=0;" vertex="1" parent="1">
          <mxGeometry x="767" y="130" width="60" height="20" as="geometry" />
        </mxCell>
        <mxCell id="34r-FkiYNikVOV2Mms_5-109" value="" style="endArrow=classic;html=1;rounded=0;entryX=1;entryY=0.5;entryDx=0;entryDy=0;" edge="1" parent="1">
          <mxGeometry width="50" height="50" relative="1" as="geometry">
            <mxPoint x="270" y="130" as="sourcePoint" />
            <mxPoint x="230" y="130" as="targetPoint" />
          </mxGeometry>
        </mxCell>
        <mxCell id="34r-FkiYNikVOV2Mms_5-110" value="" style="endArrow=classic;html=1;rounded=0;entryX=1;entryY=0.5;entryDx=0;entryDy=0;" edge="1" parent="1">
          <mxGeometry width="50" height="50" relative="1" as="geometry">
            <mxPoint x="270" y="150" as="sourcePoint" />
            <mxPoint x="230" y="150" as="targetPoint" />
          </mxGeometry>
        </mxCell>
        <mxCell id="34r-FkiYNikVOV2Mms_5-111" value="" style="endArrow=classic;html=1;rounded=0;entryX=1;entryY=0.5;entryDx=0;entryDy=0;" edge="1" parent="1">
          <mxGeometry width="50" height="50" relative="1" as="geometry">
            <mxPoint x="270" y="170" as="sourcePoint" />
            <mxPoint x="230" y="170" as="targetPoint" />
            <Array as="points">
              <mxPoint x="270" y="170" />
            </Array>
          </mxGeometry>
        </mxCell>
        <mxCell id="34r-FkiYNikVOV2Mms_5-112" value="d0" style="text;html=1;align=center;verticalAlign=middle;whiteSpace=wrap;rounded=0;" vertex="1" parent="1">
          <mxGeometry x="260" y="160" width="60" height="20" as="geometry" />
        </mxCell>
        <mxCell id="34r-FkiYNikVOV2Mms_5-113" value="d1" style="text;html=1;align=center;verticalAlign=middle;whiteSpace=wrap;rounded=0;" vertex="1" parent="1">
          <mxGeometry x="260" y="140" width="60" height="20" as="geometry" />
        </mxCell>
        <mxCell id="34r-FkiYNikVOV2Mms_5-114" value="d2" style="text;html=1;align=center;verticalAlign=middle;whiteSpace=wrap;rounded=0;" vertex="1" parent="1">
          <mxGeometry x="260" y="120" width="60" height="20" as="geometry" />
        </mxCell>
        <mxCell id="34r-FkiYNikVOV2Mms_5-117" value="" style="endArrow=classic;html=1;rounded=0;exitX=0.5;exitY=1;exitDx=0;exitDy=0;" edge="1" parent="1" source="34r-FkiYNikVOV2Mms_5-1">
          <mxGeometry width="50" height="50" relative="1" as="geometry">
            <mxPoint x="110" y="285" as="sourcePoint" />
            <mxPoint x="125" y="230" as="targetPoint" />
          </mxGeometry>
        </mxCell>
        <mxCell id="34r-FkiYNikVOV2Mms_5-118" value="" style="endArrow=classic;html=1;rounded=0;exitX=0.5;exitY=1;exitDx=0;exitDy=0;" edge="1" parent="1">
          <mxGeometry width="50" height="50" relative="1" as="geometry">
            <mxPoint x="219.41" y="180" as="sourcePoint" />
            <mxPoint x="219.41" y="230" as="targetPoint" />
          </mxGeometry>
        </mxCell>
        <mxCell id="34r-FkiYNikVOV2Mms_5-119" value="" style="endArrow=classic;html=1;rounded=0;exitX=0.5;exitY=1;exitDx=0;exitDy=0;" edge="1" parent="1">
          <mxGeometry width="50" height="50" relative="1" as="geometry">
            <mxPoint x="30" y="180" as="sourcePoint" />
            <mxPoint x="30" y="230" as="targetPoint" />
          </mxGeometry>
        </mxCell>
        <mxCell id="34r-FkiYNikVOV2Mms_5-120" value="q2" style="text;html=1;align=center;verticalAlign=middle;whiteSpace=wrap;rounded=0;" vertex="1" parent="1">
          <mxGeometry y="235" width="60" height="30" as="geometry" />
        </mxCell>
        <mxCell id="34r-FkiYNikVOV2Mms_5-121" value="q1" style="text;html=1;align=center;verticalAlign=middle;whiteSpace=wrap;rounded=0;" vertex="1" parent="1">
          <mxGeometry x="95" y="235" width="60" height="30" as="geometry" />
        </mxCell>
        <mxCell id="34r-FkiYNikVOV2Mms_5-122" value="q0" style="text;html=1;align=center;verticalAlign=middle;whiteSpace=wrap;rounded=0;" vertex="1" parent="1">
          <mxGeometry x="190" y="235" width="60" height="30" as="geometry" />
        </mxCell>
        <mxCell id="34r-FkiYNikVOV2Mms_5-123" value="" style="endArrow=classic;html=1;rounded=0;entryX=0;entryY=0.5;entryDx=0;entryDy=0;" edge="1" parent="1" target="34r-FkiYNikVOV2Mms_5-71">
          <mxGeometry width="50" height="50" relative="1" as="geometry">
            <mxPoint x="216" y="475.5" as="sourcePoint" />
            <mxPoint x="266" y="480.5" as="targetPoint" />
          </mxGeometry>
        </mxCell>
        <mxCell id="34r-FkiYNikVOV2Mms_5-124" value="Clock_out" style="text;html=1;align=center;verticalAlign=middle;whiteSpace=wrap;rounded=0;" vertex="1" parent="1">
          <mxGeometry x="196" y="440.5" width="60" height="30" as="geometry" />
        </mxCell>
        <mxCell id="34r-FkiYNikVOV2Mms_5-126" value="" style="endArrow=classic;html=1;rounded=0;entryX=0;entryY=0.5;entryDx=0;entryDy=0;" edge="1" parent="1">
          <mxGeometry width="50" height="50" relative="1" as="geometry">
            <mxPoint x="16" y="470" as="sourcePoint" />
            <mxPoint x="70" y="470" as="targetPoint" />
          </mxGeometry>
        </mxCell>
        <mxCell id="34r-FkiYNikVOV2Mms_5-127" value="Clock_out" style="text;html=1;align=center;verticalAlign=middle;whiteSpace=wrap;rounded=0;" vertex="1" parent="1">
          <mxGeometry y="435" width="60" height="30" as="geometry" />
        </mxCell>
        <mxCell id="34r-FkiYNikVOV2Mms_5-128" value="&lt;div&gt;Divisor de clock&lt;/div&gt;" style="rounded=1;whiteSpace=wrap;html=1;" vertex="1" parent="1">
          <mxGeometry x="540" y="475.5" width="160" height="55" as="geometry" />
        </mxCell>
        <mxCell id="34r-FkiYNikVOV2Mms_5-129" value="" style="triangle;whiteSpace=wrap;html=1;" vertex="1" parent="1">
          <mxGeometry x="540" y="484.88" width="27.19" height="36.25" as="geometry" />
        </mxCell>
        <mxCell id="34r-FkiYNikVOV2Mms_5-130" value="" style="endArrow=classic;html=1;rounded=0;exitX=1;exitY=0.5;exitDx=0;exitDy=0;" edge="1" parent="1" source="34r-FkiYNikVOV2Mms_5-128">
          <mxGeometry width="50" height="50" relative="1" as="geometry">
            <mxPoint x="520" y="480.5" as="sourcePoint" />
            <mxPoint x="790" y="503.5" as="targetPoint" />
          </mxGeometry>
        </mxCell>
        <mxCell id="34r-FkiYNikVOV2Mms_5-131" value="Clock_out" style="text;html=1;align=center;verticalAlign=middle;whiteSpace=wrap;rounded=0;" vertex="1" parent="1">
          <mxGeometry x="715" y="470.5" width="60" height="30" as="geometry" />
        </mxCell>
        <mxCell id="34r-FkiYNikVOV2Mms_5-133" value="" style="endArrow=classic;html=1;rounded=0;exitX=1;exitY=0.5;exitDx=0;exitDy=0;" edge="1" parent="1">
          <mxGeometry width="50" height="50" relative="1" as="geometry">
            <mxPoint x="450" y="503.5" as="sourcePoint" />
            <mxPoint x="540" y="503.5" as="targetPoint" />
          </mxGeometry>
        </mxCell>
        <mxCell id="34r-FkiYNikVOV2Mms_5-134" value="Clock_in" style="text;html=1;align=center;verticalAlign=middle;whiteSpace=wrap;rounded=0;" vertex="1" parent="1">
          <mxGeometry x="465" y="470.5" width="60" height="30" as="geometry" />
        </mxCell>
        <mxCell id="34r-FkiYNikVOV2Mms_5-135" value="&lt;div&gt;Conversor&lt;/div&gt;&lt;div&gt;BIN-BCD&lt;br&gt;&lt;/div&gt;" style="rounded=1;whiteSpace=wrap;html=1;" vertex="1" parent="1">
          <mxGeometry x="130" y="660" width="120" height="60" as="geometry" />
        </mxCell>
        <mxCell id="34r-FkiYNikVOV2Mms_5-136" value="4x1" style="shape=trapezoid;perimeter=trapezoidPerimeter;whiteSpace=wrap;html=1;fixedSize=1;rotation=90;" vertex="1" parent="1">
          <mxGeometry x="295" y="730" width="100" height="50" as="geometry" />
        </mxCell>
        <mxCell id="34r-FkiYNikVOV2Mms_5-138" value="4x1" style="shape=trapezoid;perimeter=trapezoidPerimeter;whiteSpace=wrap;html=1;fixedSize=1;rotation=90;" vertex="1" parent="1">
          <mxGeometry x="292.50000000000006" y="620" width="100" height="50" as="geometry" />
        </mxCell>
        <mxCell id="34r-FkiYNikVOV2Mms_5-139" value="" style="endArrow=classic;html=1;rounded=0;exitX=1;exitY=0.25;exitDx=0;exitDy=0;entryX=0.5;entryY=1;entryDx=0;entryDy=0;" edge="1" parent="1" source="34r-FkiYNikVOV2Mms_5-135" target="34r-FkiYNikVOV2Mms_5-138">
          <mxGeometry width="50" height="50" relative="1" as="geometry">
            <mxPoint x="410" y="680" as="sourcePoint" />
            <mxPoint x="290" y="670" as="targetPoint" />
            <Array as="points">
              <mxPoint x="280" y="675" />
              <mxPoint x="280" y="645" />
            </Array>
          </mxGeometry>
        </mxCell>
        <mxCell id="34r-FkiYNikVOV2Mms_5-140" value="" style="endArrow=classic;html=1;rounded=0;exitX=1;exitY=0.75;exitDx=0;exitDy=0;entryX=0.5;entryY=1;entryDx=0;entryDy=0;" edge="1" parent="1" source="34r-FkiYNikVOV2Mms_5-135" target="34r-FkiYNikVOV2Mms_5-136">
          <mxGeometry width="50" height="50" relative="1" as="geometry">
            <mxPoint x="410" y="680" as="sourcePoint" />
            <mxPoint x="460" y="630" as="targetPoint" />
            <Array as="points">
              <mxPoint x="280" y="705" />
              <mxPoint x="280" y="755" />
            </Array>
          </mxGeometry>
        </mxCell>
        <mxCell id="34r-FkiYNikVOV2Mms_5-141" value="" style="endArrow=classic;html=1;rounded=0;entryX=0;entryY=0.5;entryDx=0;entryDy=0;" edge="1" parent="1" target="34r-FkiYNikVOV2Mms_5-135">
          <mxGeometry width="50" height="50" relative="1" as="geometry">
            <mxPoint x="40" y="690" as="sourcePoint" />
            <mxPoint x="460" y="630" as="targetPoint" />
          </mxGeometry>
        </mxCell>
        <mxCell id="34r-FkiYNikVOV2Mms_5-142" value="&lt;div&gt;Valor de&lt;/div&gt;&lt;div&gt;entrada&lt;br&gt;&lt;/div&gt;" style="text;html=1;align=center;verticalAlign=middle;whiteSpace=wrap;rounded=0;" vertex="1" parent="1">
          <mxGeometry x="50" y="660" width="60" height="30" as="geometry" />
        </mxCell>
        <mxCell id="34r-FkiYNikVOV2Mms_5-143" value="Display 7seg" style="rounded=1;whiteSpace=wrap;html=1;" vertex="1" parent="1">
          <mxGeometry x="450" y="610" width="60" height="60" as="geometry" />
        </mxCell>
        <mxCell id="34r-FkiYNikVOV2Mms_5-144" value="Display 7seg" style="rounded=1;whiteSpace=wrap;html=1;" vertex="1" parent="1">
          <mxGeometry x="450" y="725" width="60" height="60" as="geometry" />
        </mxCell>
        <mxCell id="34r-FkiYNikVOV2Mms_5-145" value="" style="endArrow=classic;html=1;rounded=0;exitX=0.5;exitY=0;exitDx=0;exitDy=0;entryX=0;entryY=0.5;entryDx=0;entryDy=0;" edge="1" parent="1" source="34r-FkiYNikVOV2Mms_5-136" target="34r-FkiYNikVOV2Mms_5-144">
          <mxGeometry width="50" height="50" relative="1" as="geometry">
            <mxPoint x="410" y="600" as="sourcePoint" />
            <mxPoint x="460" y="550" as="targetPoint" />
          </mxGeometry>
        </mxCell>
        <mxCell id="34r-FkiYNikVOV2Mms_5-146" value="" style="endArrow=classic;html=1;rounded=0;exitX=0.5;exitY=0;exitDx=0;exitDy=0;entryX=0;entryY=0.5;entryDx=0;entryDy=0;" edge="1" parent="1">
          <mxGeometry width="50" height="50" relative="1" as="geometry">
            <mxPoint x="370" y="644.33" as="sourcePoint" />
            <mxPoint x="450" y="644.33" as="targetPoint" />
          </mxGeometry>
        </mxCell>
      </root>
    </mxGraphModel>
  </diagram>
</mxfile>
